# xmcd
#
# Track frame offsets:
#	150
#	16704
#	36729
#	52641
#	77631
#	94631
#	111528
#	130644
#	155802
#
# Disc length: 2340 seconds
#
# Revision: 1
# Processed by: cddbd v1.5.2PL0 Copyright (c) Steve Scherf et al.
# Submitted via: audiograbber 1.83.01
#
DISCID=69092209
DTITLE=Livin' Blues - Now!!!
DYEAR=1986
DGENRE=Blues
TTITLE0=Two trains
TTITLE1=Homework
TTITLE2=Hoodooman
TTITLE3=Ain't no use crying
TTITLE4=Livin' as a free man
TTITLE5=Havanna moon
TTITLE6=Let it happen
TTITLE7=Can't leave your love alone
TTITLE8=Parachute jump/Jump jive
EXTD=
EXTT0=
EXTT1=
EXTT2=
EXTT3=
EXTT4=
EXTT5=
EXTT6=
EXTT7=
EXTT8=
PLAYORDER=
